{
  "accessors": [
    {
      "bufferView": 2,
      "componentType": 5126,
      "count": 9777,
      "max": [
        0.4382108747959137,
        -2.0375218391418457,
        0.747374415397644
      ],
      "min": [
        -0.4683699905872345,
        -19.587295532226563,
        -1.1207720041275024
      ],
      "type": "VEC3"
    },
    {
      "bufferView": 2,
      "byteOffset": 117324,
      "componentType": 5126,
      "count": 9777,
      "max": [
        0.9999787211418152,
        0.9999719858169556,
        0.9999997019767761
      ],
      "min": [
        -0.9999688267707825,
        -0.9998155832290649,
        -0.9999343156814575
      ],
      "type": "VEC3"
    },
    {
      "bufferView": 1,
      "componentType": 5126,
      "count": 9777,
      "max": [
        0.9883999824523926,
        0.9980400204658508
      ],
      "min": [
        0.0019499999471008778,
        0.0028800000436604023
      ],
      "type": "VEC2"
    },
    {
      "bufferView": 0,
      "componentType": 5125,
      "count": 52170,
      "type": "SCALAR"
    },
    {
      "bufferView": 2,
      "byteOffset": 234648,
      "componentType": 5126,
      "count": 2417,
      "max": [
        0.16800972819328308,
        -2.0422675609588623,
        0.2442626953125
      ],
      "min": [
        -0.19967766106128693,
        -15.046996116638184,
        -0.5374769568443298
      ],
      "type": "VEC3"
    },
    {
      "bufferView": 2,
      "byteOffset": 263652,
      "componentType": 5126,
      "count": 2417,
      "max": [
        0.9999338984489441,
        0.6514551043510437,
        0.9999808669090271
      ],
      "min": [
        -0.9995193481445313,
        -0.09763757884502411,
        -0.9999830722808838
      ],
      "type": "VEC3"
    },
    {
      "bufferView": 1,
      "byteOffset": 78216,
      "componentType": 5126,
      "count": 2417,
      "max": [
        0.9965100288391113,
        0.9676799774169922
      ],
      "min": [
        0.4612799882888794,
        0.0019499999471008778
      ],
      "type": "VEC2"
    },
    {
      "bufferView": 0,
      "byteOffset": 208680,
      "componentType": 5125,
      "count": 12840,
      "type": "SCALAR"
    }
  ],
  "asset": {
    "extras": {
      "author": "Virtual Museums of Małopolska (https://sketchfab.com/WirtualneMuzeaMalopolski)",
      "license": "CC0-1.0 (http://creativecommons.org/publicdomain/zero/1.0/)",
      "source": "https://sketchfab.com/3d-models/takuba-a-tuareg-sword-80f66f2dc02c4e38aa26833386ed87e9",
      "title": "“Takuba”, a Tuareg sword"
    },
    "generator": "Sketchfab-12.68.0",
    "version": "2.0"
  },
  "bufferViews": [
    {
      "buffer": 0,
      "byteLength": 260040,
      "name": "floatBufferViews",
      "target": 34963
    },
    {
      "buffer": 0,
      "byteLength": 97552,
      "byteOffset": 260040,
      "byteStride": 8,
      "name": "floatBufferViews",
      "target": 34962
    },
    {
      "buffer": 0,
      "byteLength": 292656,
      "byteOffset": 357592,
      "byteStride": 12,
      "name": "floatBufferViews",
      "target": 34962
    }
  ],
  "buffers": [
    {
      "byteLength": 650248,
      "uri": "scene.bin"
    }
  ],
  "images": [
    {
      "uri": "textures/defaultMat_baseColor.jpeg"
    }
  ],
  "materials": [
    {
      "doubleSided": true,
      "name": "defaultMat",
      "pbrMetallicRoughness": {
        "baseColorTexture": {
          "index": 0
        },
        "metallicFactor": 0.4712271341463415,
        "roughnessFactor": 0.45560213414634143
      }
    }
  ],
  "meshes": [
    {
      "name": "Object_0",
      "primitives": [
        {
          "attributes": {
            "NORMAL": 1,
            "POSITION": 0,
            "TEXCOORD_0": 2
          },
          "indices": 3,
          "material": 0,
          "mode": 4
        }
      ]
    },
    {
      "name": "Object_1",
      "primitives": [
        {
          "attributes": {
            "NORMAL": 5,
            "POSITION": 4,
            "TEXCOORD_0": 6
          },
          "indices": 7,
          "material": 0,
          "mode": 4
        }
      ]
    }
  ],
  "nodes": [
    {
      "children": [
        1
      ],
      "matrix": [
        -2.220446049250313e-16,
        -1.0,
        -1.1102230246251565e-16,
        0.0,
        -1.0,
        1.1102230246251565e-16,
        2.465190328815662e-32,
        0.0,
        1.1102230246251565e-16,
        0.0,
        -1.0,
        0.0,
        -10.8274507522583,
        -0.20178112387657401,
        10.625669479370117,
        1.0
      ],
      "name": "Sketchfab_model"
    },
    {
      "children": [
        2,
        3
      ],
      "name": "M_O_A_156_a_b_Miecz_11K_edit02w.OBJ.cleaner.materialmerger.gles"
    },
    {
      "mesh": 0,
      "name": "Object_2"
    },
    {
      "mesh": 1,
      "name": "Object_3"
    }
  ],
  "samplers": [
    {
      "magFilter": 9729,
      "minFilter": 9987,
      "wrapS": 10497,
      "wrapT": 10497
    }
  ],
  "scene": 0,
  "scenes": [
    {
      "name": "Sketchfab_Scene",
      "nodes": [
        0
      ]
    }
  ],
  "textures": [
    {
      "sampler": 0,
      "source": 0
    }
  ]
}
